<?xml version="1.0" encoding="UTF-8"?><svg id="Layer_2" xmlns="http://www.w3.org/2000/svg" viewBox="0 0 440.215 77.785"><defs><style>.cls-1{fill:#fff;}</style></defs><g id="Layer_1-2"><path class="cls-1" d="M44.817,64H25.408C11.398,64,0,52.602,0,38.592S11.398,13.185,25.408,13.185h19.409v11.998H25.408c-7.395,0-13.41,6.016-13.41,13.409s6.016,13.41,13.41,13.41h19.409v11.998Z"/><path class="cls-1" d="M184.308,64h-22.392c-14.01,0-25.407-11.398-25.407-25.408v-1.019c0-13.448,10.94-24.389,24.389-24.389h2.038c13.448,0,24.389,10.94,24.389,24.389v1.067c0,4.148-3.375,7.523-7.523,7.523h-28.946c1.35,3.557,4.705,7.566,11.062,7.566h22.392v10.27Zm-35.324-27.565h0s25.866,0,25.866,0h0c0-2.201-.611-5.254-1.911-7.03-2.256-3.081-5.9-5.086-10.003-5.086h-2.038c-4.103,0-7.747,2.005-10.003,5.086-1.3,1.776-1.911,4.829-1.911,7.03Z"/><path class="cls-1" d="M128.666,63.966h-11.998v-25.374c0-7.394-6.016-13.409-13.409-13.409s-13.41,6.016-13.41,13.409v25.374h-11.998v-25.374c0-14.01,11.397-25.407,25.407-25.407s25.408,11.397,25.408,25.407v25.374Z"/><path class="cls-1" d="M401.397,63.966h-11.998v-25.374c0-14.01,11.397-25.407,25.407-25.407s25.408,11.397,25.408,25.407h-11.998c0-7.394-6.016-13.409-13.41-13.409s-13.409,6.016-13.409,13.409v25.374Z"/><path class="cls-1" d="M280.607,64h-25.408v-25.408c0-14.01,11.398-25.407,25.408-25.407s25.407,11.397,25.407,25.407-11.397,25.408-25.407,25.408Zm-13.41-11.998h13.41c7.394,0,13.409-6.016,13.409-13.41s-6.016-13.409-13.409-13.409-13.41,6.016-13.41,13.409v13.41Z"/><path class="cls-1" d="M357.821,64c-14.01,0-25.407-11.398-25.407-25.408s11.397-25.407,25.407-25.407,25.408,11.397,25.408,25.407-11.398,25.408-25.408,25.408Zm0-38.817c-7.394,0-13.409,6.016-13.409,13.409s6.016,13.41,13.409,13.41,13.41-6.016,13.41-13.41-6.016-13.409-13.41-13.409Z"/><rect class="cls-1" x="55.012" y="32.388" width="11.998" height="31.578"/><rect class="cls-1" x="312.518" width="11.998" height="63.966"/><rect class="cls-1" x="255.199" y="38.592" width="11.998" height="39.193"/><path class="cls-1" d="M220.489,44.591c-14.01,0-25.408-11.397-25.408-25.407v-3.111h11.998v3.111c0,7.394,6.016,13.409,13.41,13.409s13.409-6.016,13.409-13.409v-3.111h11.998v3.111c0,14.01-11.397,25.407-25.407,25.407Z"/><path class="cls-1" d="M245.896,63.966h-11.998v-4.94c0-7.689-6.266-14.435-13.409-14.435s-13.41,6.745-13.41,14.435v4.94h-11.998v-4.94c0-14.328,11.636-26.433,25.408-26.433s25.407,12.104,25.407,26.433v4.94Z"/><circle class="cls-1" cx="61.01" cy="18.954" r="7.24"/></g></svg>